<svg data-v-423bf9ae="" xmlns="http://www.w3.org/2000/svg" viewBox="0 0 445 90" class="iconLeftSlogan"><!----><!----><!----><g data-v-423bf9ae="" id="597577cb-d8db-42b4-8800-f53596480322" fill="#000000" transform="matrix(5.8365760270947415,0,0,5.8365760270947415,102.9961070920586,-21.245138066161786)"><path d="M4.48 13.75L1.20 13.75L1.20 3.95L4.27 3.95L4.27 3.95Q5.89 3.95 6.62 4.69L6.62 4.69L6.62 4.69Q7.35 5.43 7.35 6.54L7.35 6.54L7.35 6.54Q7.35 7.99 5.99 8.58L5.99 8.58L5.99 8.58Q6.79 8.83 7.25 9.46L7.25 9.46L7.25 9.46Q7.70 10.08 7.70 10.92L7.70 10.92L7.70 10.92Q7.70 12.10 6.92 12.92L6.92 12.92L6.92 12.92Q6.15 13.75 4.48 13.75L4.48 13.75ZM2.65 5.26L2.65 8.01L4.03 8.01L4.03 8.01Q4.97 8.01 5.45 7.64L5.45 7.64L5.45 7.64Q5.94 7.27 5.94 6.61L5.94 6.61L5.94 6.61Q5.94 5.26 4.33 5.26L4.33 5.26L2.65 5.26ZM2.65 9.32L2.65 12.42L4.61 12.42L4.61 12.42Q5.52 12.42 5.90 12.00L5.90 12.00L5.90 12.00Q6.29 11.58 6.29 10.96L6.29 10.96L6.29 10.96Q6.29 9.32 4.19 9.32L4.19 9.32L2.65 9.32ZM12.43 13.92L12.43 13.92L12.43 13.92Q11.27 13.92 10.54 13.29L10.54 13.29L10.54 13.29Q9.81 12.67 9.81 11.52L9.81 11.52L9.81 11.52Q9.81 10.36 10.63 9.76L10.63 9.76L10.63 9.76Q11.45 9.16 12.61 9.16L12.61 9.16L12.61 9.16Q13.68 9.16 14.48 9.58L14.48 9.58L14.48 9.09L14.48 9.09Q14.48 7.64 13.02 7.64L13.02 7.64L13.02 7.64Q11.91 7.64 10.74 8.39L10.74 8.39L10.32 7.24L10.32 7.24Q11.59 6.43 13.15 6.43L13.15 6.43L13.15 6.43Q15.83 6.43 15.83 9.04L15.83 9.04L15.83 13.75L14.48 13.75L14.48 13.13L14.48 13.13Q13.66 13.92 12.43 13.92ZM12.66 12.68L12.66 12.68L12.66 12.68Q13.69 12.68 14.48 11.84L14.48 11.84L14.48 10.77L14.48 10.77Q13.73 10.35 12.82 10.35L12.82 10.35L12.82 10.35Q12.11 10.35 11.63 10.65L11.63 10.65L11.63 10.65Q11.16 10.95 11.16 11.52L11.16 11.52L11.16 11.52Q11.16 12.05 11.56 12.37L11.56 12.37L11.56 12.37Q11.96 12.68 12.66 12.68ZM21.94 6.43L21.94 6.43L21.94 6.43Q24.58 6.43 24.58 9.51L24.58 9.51L24.58 13.75L23.18 13.75L23.18 9.60L23.18 9.60Q23.18 7.74 21.62 7.74L21.62 7.74L21.62 7.74Q19.95 7.74 19.95 9.58L19.95 9.58L19.95 13.75L18.55 13.75L18.55 6.59L19.85 6.59L19.85 7.46L19.85 7.46Q20.12 7.00 20.68 6.71L20.68 6.71L20.68 6.71Q21.24 6.43 21.94 6.43ZM33.45 13.75L31.91 13.75L29.79 9.60L28.60 10.78L28.60 13.75L27.20 13.75L27.20 4.30L28.60 3.64L28.60 9.20L31.16 6.59L32.82 6.59L30.80 8.60L33.45 13.75ZM39.53 5.19L39.53 5.19L39.53 5.19Q39.28 5.43 38.92 5.43L38.92 5.43L38.92 5.43Q38.56 5.43 38.31 5.18L38.31 5.18L38.31 5.18Q38.07 4.93 38.07 4.58L38.07 4.58L38.07 4.58Q38.07 4.23 38.31 3.98L38.31 3.98L38.31 3.98Q38.56 3.72 38.92 3.72L38.92 3.72L38.92 3.72Q39.28 3.72 39.53 3.97L39.53 3.97L39.53 3.97Q39.77 4.21 39.77 4.58L39.77 4.58L39.77 4.58Q39.77 4.94 39.53 5.19ZM39.62 6.59L39.62 12.50L41.59 12.50L41.59 13.75L36.25 13.75L36.25 12.50L38.22 12.50L38.22 7.83L36.25 7.83L36.25 6.59L39.62 6.59ZM47.43 13.92L47.43 13.92L47.43 13.92Q46.58 13.92 45.84 13.57L45.84 13.57L45.84 13.57Q45.11 13.23 44.65 12.64L44.65 12.64L45.58 11.82L45.58 11.82Q46.42 12.71 47.53 12.71L47.53 12.71L47.53 12.71Q48.09 12.71 48.45 12.50L48.45 12.50L48.45 12.50Q48.80 12.28 48.80 11.87L48.80 11.87L48.80 11.87Q48.80 11.30 47.22 10.65L47.22 10.65L47.22 10.65Q47.19 10.64 47.18 10.63L47.18 10.63L47.18 10.63Q47.17 10.63 47.14 10.61L47.14 10.61L47.14 10.61Q47.11 10.60 47.09 10.59L47.09 10.59L47.09 10.59Q47.07 10.58 47.04 10.57L47.04 10.57L47.04 10.57Q46.44 10.32 46.12 10.16L46.12 10.16L46.12 10.16Q45.79 10.00 45.43 9.73L45.43 9.73L45.43 9.73Q45.07 9.46 44.91 9.13L44.91 9.13L44.91 9.13Q44.74 8.79 44.74 8.34L44.74 8.34L44.74 8.34Q44.74 7.46 45.49 6.94L45.49 6.94L45.49 6.94Q46.24 6.43 47.39 6.43L47.39 6.43L47.39 6.43Q48.99 6.43 49.97 7.55L49.97 7.55L49.04 8.32L49.04 8.32Q48.27 7.63 47.33 7.63L47.33 7.63L47.33 7.63Q46.76 7.63 46.41 7.83L46.41 7.83L46.41 7.83Q46.06 8.02 46.06 8.36L46.06 8.36L46.06 8.36Q46.06 8.85 47.60 9.45L47.60 9.45L47.60 9.45Q47.66 9.48 47.68 9.49L47.68 9.49L47.68 9.49Q48.19 9.69 48.41 9.79L48.41 9.79L48.41 9.79Q48.64 9.88 49.04 10.11L49.04 10.11L49.04 10.11Q49.43 10.33 49.62 10.54L49.62 10.54L49.62 10.54Q49.81 10.75 49.97 11.10L49.97 11.10L49.97 11.10Q50.12 11.44 50.12 11.84L50.12 11.84L50.12 11.84Q50.12 12.81 49.39 13.36L49.39 13.36L49.39 13.36Q48.66 13.92 47.43 13.92ZM56.71 13.92L56.71 13.92L56.71 13.92Q54.75 13.92 54.75 12.04L54.75 12.04L54.75 7.83L53.19 7.83L53.19 6.59L54.75 6.59L54.75 4.31L56.15 3.64L56.15 6.59L58.56 6.59L58.56 7.83L56.15 7.83L56.15 11.70L56.15 11.70Q56.15 12.18 56.38 12.42L56.38 12.42L56.38 12.42Q56.60 12.66 57.18 12.66L57.18 12.66L57.18 12.66Q57.81 12.66 58.44 12.29L58.44 12.29L58.28 13.59L58.28 13.59Q57.67 13.92 56.71 13.92Z"></path></g><defs data-v-423bf9ae=""><linearGradient data-v-423bf9ae="" gradientTransform="rotate(25)" id="4f585c57-b498-48b8-ad33-c3170fa4fa50" x1="0%" y1="0%" x2="100%" y2="0%"><stop data-v-423bf9ae="" offset="0%" style="stop-color: rgb(0, 102, 120); stop-opacity: 1;"></stop><stop data-v-423bf9ae="" offset="100%" style="stop-color: rgb(79, 168, 255); stop-opacity: 1;"></stop></linearGradient></defs><g data-v-423bf9ae="" id="89651350-c0fb-4536-9e73-229185a0fb63" transform="matrix(2.8125,0,0,2.8125,0,0)" stroke="none" fill="url(#4f585c57-b498-48b8-ad33-c3170fa4fa50)"><path d="M9.571 20.464l8.064 4.47 8.065-4.47v-8.939l-8.065-4.469-8.064 4.469z"></path><path d="M32 0H0v32h32l-5.054-5.172H5.054V5.172h21.892z"></path></g><!----><g data-v-423bf9ae="" id="178c45b8-8d9e-4532-bcc4-f8900d3563d7" fill="#000000" transform="matrix(1.6154701114491117,0,0,1.6154701114491117,108.6430051507009,56.04209959491581)"><path d="M9.51 3.86L10.36 12.60L10.78 12.60L9.73 2.45L5.81 10.70L1.89 2.45L0.84 12.60L1.26 12.60L2.11 3.86L5.81 11.69ZM19.81 2.80L19.81 12.60L20.23 12.60L20.23 2.80ZM36.61 2.80L36.61 11.79L29.12 2.45L29.12 12.60L29.54 12.60L29.54 3.61L37.03 12.95L37.03 2.80ZM45.92 2.80L45.92 12.60L46.34 12.60L46.34 2.80ZM64.04 3.86L64.89 12.60L65.31 12.60L64.26 2.45L60.34 10.70L56.42 2.45L55.37 12.60L55.79 12.60L56.64 3.86L60.34 11.69ZM77.63 2.45L73.36 12.60L73.85 12.60L75.12 9.52L80.14 9.52L81.41 12.60L81.90 12.60ZM77.63 3.50L79.94 9.07L75.32 9.07ZM90.37 2.80L90.37 12.60L94.85 12.60L94.85 12.19L90.79 12.19L90.79 2.80ZM114.59 2.80L114.59 12.60L116.69 12.60C118.82 12.60 119.88 11.69 119.88 9.87C119.88 9.19 119.65 8.62 119.18 8.17C118.70 7.72 118.14 7.41 117.47 7.25C118.71 7.02 119.32 6.30 119.32 5.11C119.32 4.40 119.07 3.84 118.56 3.42C118.05 3.01 117.33 2.80 116.41 2.80ZM115.01 7.08L115.01 3.21L116.41 3.21C117.18 3.21 117.79 3.37 118.24 3.71C118.68 4.05 118.90 4.51 118.90 5.11C118.90 5.60 118.77 5.99 118.50 6.31C118.23 6.62 117.92 6.83 117.57 6.93C117.22 7.03 116.83 7.08 116.41 7.08ZM115.01 7.48L116.69 7.48C117.09 7.48 117.49 7.56 117.89 7.72C118.30 7.88 118.65 8.16 118.96 8.54C119.27 8.92 119.42 9.37 119.42 9.87C119.42 11.42 118.51 12.19 116.69 12.19L115.01 12.19ZM132.20 2.45L127.93 12.60L128.42 12.60L129.70 9.52L134.71 9.52L135.98 12.60L136.47 12.60ZM132.20 3.50L134.51 9.07L129.89 9.07ZM151.87 2.80L151.87 11.79L144.38 2.45L144.38 12.60L144.80 12.60L144.80 3.61L152.29 12.95L152.29 2.80ZM161.18 2.80L161.18 12.60L161.60 12.60L161.60 7.56L166.04 12.60L166.63 12.60L162.04 7.39L166.42 2.80L165.84 2.80L161.60 7.24L161.60 2.80Z"></path></g></svg>